{
    "asset" : {
        "generator" : "Khronos glTF Blender I/O v1.1.46",
        "version" : "2.0"
    },
    "scene" : 0,
    "scenes" : [
        {
            "name" : "Scene",
            "nodes" : [
                0,
                1,
                2,
                3,
                4
            ]
        }
    ],
    "nodes" : [
        {
            "mesh" : 0,
            "name" : "ship_body",
            "scale" : [
                1,
                1,
                2
            ]
        },
        {
            "mesh" : 1,
            "name" : "thruster_2",
            "rotation" : [
                0.7071067690849304,
                0,
                0,
                0.7071067690849304
            ],
            "scale" : [
                0.25,
                0.25,
                0.25
            ],
            "translation" : [
                1.3641746044158936,
                1.9312145709991455,
                4.273913860321045
            ]
        },
        {
            "mesh" : 2,
            "name" : "thruster_1",
            "rotation" : [
                0.7071067690849304,
                0,
                0,
                0.7071067690849304
            ],
            "scale" : [
                0.25,
                0.25,
                0.25
            ],
            "translation" : [
                -1.26789128780365,
                1.9312145709991455,
                4.273913860321045
            ]
        },
        {
            "mesh" : 3,
            "name" : "gun_2",
            "rotation" : [
                0.7071067690849304,
                0,
                0,
                0.7071067690849304
            ],
            "scale" : [
                0.125,
                0.75,
                0.125
            ],
            "translation" : [
                1.3641746044158936,
                1.9312145709991455,
                0.6784523725509644
            ]
        },
        {
            "mesh" : 4,
            "name" : "gun_1",
            "rotation" : [
                0.7071067690849304,
                0,
                0,
                0.7071067690849304
            ],
            "scale" : [
                0.125,
                0.75,
                0.125
            ],
            "translation" : [
                -1.3122069835662842,
                1.9312145709991455,
                0.6784523725509644
            ]
        }
    ],
    "materials" : [
        {
            "doubleSided" : true,
            "emissiveFactor" : [
                0,
                0,
                0
            ],
            "name" : "Material",
            "pbrMetallicRoughness" : {
                "baseColorFactor" : [
                    0.800000011920929,
                    0.800000011920929,
                    0.800000011920929,
                    1
                ],
                "metallicFactor" : 0,
                "roughnessFactor" : 0.4000000059604645
            }
        }
    ],
    "meshes" : [
        {
            "name" : "Cube",
            "primitives" : [
                {
                    "attributes" : {
                        "POSITION" : 0,
                        "NORMAL" : 1,
                        "TEXCOORD_0" : 2
                    },
                    "indices" : 3,
                    "material" : 0
                }
            ]
        },
        {
            "name" : "Cylinder",
            "primitives" : [
                {
                    "attributes" : {
                        "POSITION" : 4,
                        "NORMAL" : 5,
                        "TEXCOORD_0" : 6
                    },
                    "indices" : 7
                }
            ]
        },
        {
            "name" : "Cylinder.001",
            "primitives" : [
                {
                    "attributes" : {
                        "POSITION" : 8,
                        "NORMAL" : 9,
                        "TEXCOORD_0" : 10
                    },
                    "indices" : 7
                }
            ]
        },
        {
            "name" : "Cylinder.002",
            "primitives" : [
                {
                    "attributes" : {
                        "POSITION" : 11,
                        "NORMAL" : 12,
                        "TEXCOORD_0" : 13
                    },
                    "indices" : 14
                }
            ]
        },
        {
            "name" : "Cylinder.004",
            "primitives" : [
                {
                    "attributes" : {
                        "POSITION" : 15,
                        "NORMAL" : 16,
                        "TEXCOORD_0" : 17
                    },
                    "indices" : 14
                }
            ]
        }
    ],
    "accessors" : [
        {
            "bufferView" : 0,
            "componentType" : 5126,
            "count" : 244,
            "max" : [
                4.98685884475708,
                2.2421927452087402,
                2.5026605129241943
            ],
            "min" : [
                -4.98685884475708,
                -1,
                -1
            ],
            "type" : "VEC3"
        },
        {
            "bufferView" : 1,
            "componentType" : 5126,
            "count" : 244,
            "type" : "VEC3"
        },
        {
            "bufferView" : 2,
            "componentType" : 5126,
            "count" : 244,
            "type" : "VEC2"
        },
        {
            "bufferView" : 3,
            "componentType" : 5123,
            "count" : 384,
            "type" : "SCALAR"
        },
        {
            "bufferView" : 4,
            "componentType" : 5126,
            "count" : 60,
            "max" : [
                0.7859509587287903,
                1.8050544261932373,
                1.0936464071273804
            ],
            "min" : [
                -1.2140491008758545,
                -0.19494551420211792,
                -0.9063535928726196
            ],
            "type" : "VEC3"
        },
        {
            "bufferView" : 5,
            "componentType" : 5126,
            "count" : 60,
            "type" : "VEC3"
        },
        {
            "bufferView" : 6,
            "componentType" : 5126,
            "count" : 60,
            "type" : "VEC2"
        },
        {
            "bufferView" : 7,
            "componentType" : 5123,
            "count" : 114,
            "type" : "SCALAR"
        },
        {
            "bufferView" : 8,
            "componentType" : 5126,
            "count" : 60,
            "max" : [
                0.7859509587287903,
                1.8050544261932373,
                1.0936464071273804
            ],
            "min" : [
                -1.2140491008758545,
                -0.19494551420211792,
                -0.9063535928726196
            ],
            "type" : "VEC3"
        },
        {
            "bufferView" : 9,
            "componentType" : 5126,
            "count" : 60,
            "type" : "VEC3"
        },
        {
            "bufferView" : 10,
            "componentType" : 5126,
            "count" : 60,
            "type" : "VEC2"
        },
        {
            "bufferView" : 11,
            "componentType" : 5126,
            "count" : 32,
            "max" : [
                0.7859509587287903,
                1.8050544261932373,
                1.0936464071273804
            ],
            "min" : [
                -1.2140491008758545,
                -0.19494551420211792,
                -0.9063535928726196
            ],
            "type" : "VEC3"
        },
        {
            "bufferView" : 12,
            "componentType" : 5126,
            "count" : 32,
            "type" : "VEC3"
        },
        {
            "bufferView" : 13,
            "componentType" : 5126,
            "count" : 32,
            "type" : "VEC2"
        },
        {
            "bufferView" : 14,
            "componentType" : 5123,
            "count" : 48,
            "type" : "SCALAR"
        },
        {
            "bufferView" : 15,
            "componentType" : 5126,
            "count" : 32,
            "max" : [
                0.7859509587287903,
                1.8050544261932373,
                1.0936464071273804
            ],
            "min" : [
                -1.2140491008758545,
                -0.19494551420211792,
                -0.9063535928726196
            ],
            "type" : "VEC3"
        },
        {
            "bufferView" : 16,
            "componentType" : 5126,
            "count" : 32,
            "type" : "VEC3"
        },
        {
            "bufferView" : 17,
            "componentType" : 5126,
            "count" : 32,
            "type" : "VEC2"
        }
    ],
    "bufferViews" : [
        {
            "buffer" : 0,
            "byteLength" : 2928,
            "byteOffset" : 0
        },
        {
            "buffer" : 0,
            "byteLength" : 2928,
            "byteOffset" : 2928
        },
        {
            "buffer" : 0,
            "byteLength" : 1952,
            "byteOffset" : 5856
        },
        {
            "buffer" : 0,
            "byteLength" : 768,
            "byteOffset" : 7808
        },
        {
            "buffer" : 0,
            "byteLength" : 720,
            "byteOffset" : 8576
        },
        {
            "buffer" : 0,
            "byteLength" : 720,
            "byteOffset" : 9296
        },
        {
            "buffer" : 0,
            "byteLength" : 480,
            "byteOffset" : 10016
        },
        {
            "buffer" : 0,
            "byteLength" : 228,
            "byteOffset" : 10496
        },
        {
            "buffer" : 0,
            "byteLength" : 720,
            "byteOffset" : 10724
        },
        {
            "buffer" : 0,
            "byteLength" : 720,
            "byteOffset" : 11444
        },
        {
            "buffer" : 0,
            "byteLength" : 480,
            "byteOffset" : 12164
        },
        {
            "buffer" : 0,
            "byteLength" : 384,
            "byteOffset" : 12644
        },
        {
            "buffer" : 0,
            "byteLength" : 384,
            "byteOffset" : 13028
        },
        {
            "buffer" : 0,
            "byteLength" : 256,
            "byteOffset" : 13412
        },
        {
            "buffer" : 0,
            "byteLength" : 96,
            "byteOffset" : 13668
        },
        {
            "buffer" : 0,
            "byteLength" : 384,
            "byteOffset" : 13764
        },
        {
            "buffer" : 0,
            "byteLength" : 384,
            "byteOffset" : 14148
        },
        {
            "buffer" : 0,
            "byteLength" : 256,
            "byteOffset" : 14532
        }
    ],
    "buffers" : [
        {
            "byteLength" : 14788,
            "uri" : "data:application/octet-stream;base64,"
        }
    ]
}
